<svg id="sprite" xmlns="http://www.w3.org/2000/svg" version="1.0" class="hidden">

<symbol id="icon-downarrow" viewBox="0 0 24 24" xmlns="http://www.w3.org/2000/svg">
	<path d="m3.9975605 8.1676949c.007.2380601.0981.4659101.2578095.6425801l7.00195 7.722649c.396981.438242 1.085451.438241 1.48243.000001l7.001949-7.72265c.582578-.6425129.12707-1.6713205-.74024-1.6718803h-14.0058483c-.5631405.0009102-1.0144898.4663998-.9980502 1.0293002z"/>
</symbol>

<symbol id="icon-help" xmlns="http://www.w3.org/2000/svg" data-name="Layer 1" viewBox="0 0 100 100" x="0px" y="0px">
	<g data-name="Group"><path data-name="Compound Path" d="M50,17.6A32.4,32.4,0,1,0,82.4,50,32.4,32.4,0,0,0,50,17.6Zm3.2,47.7H47.1v-6h6.2ZM59.1,48a15.4,15.4,0,0,1-3,2.8L54.6,52a4.4,4.4,0,0,0-1.6,2.2,9.1,9.1,0,0,0-.3,2.4H47.2a16.2,16.2,0,0,1,.7-4.8,8.5,8.5,0,0,1,2.8-3.1l1.5-1.2a5.3,5.3,0,0,0,1.2-1.2,4.2,4.2,0,0,0,.8-2.5,4.8,4.8,0,0,0-.9-2.9q-.9-1.3-3.3-1.3a3.7,3.7,0,0,0-3.4,1.6,6.1,6.1,0,0,0-1,3.3h-6q.2-5.9,4.1-8.3a10.8,10.8,0,0,1,6-1.6,12.9,12.9,0,0,1,7.7,2.2,7.6,7.6,0,0,1,3.1,6.6A7.5,7.5,0,0,1,59.1,48Z"></path></g>
</symbol>

<svg id="icon-welcome" xmlns="http://www.w3.org/2000/svg" xmlns:xlink="http://www.w3.org/1999/xlink" fill="#000000" viewBox="0 0 256 256"><rect width="256" height="256" fill="none"></rect><line x1="144" y1="224" x2="112" y2="224" fill="none" stroke="#000000" stroke-linecap="round" stroke-linejoin="round" stroke-width="8"></line><path d="M123,19.8C104,35,40.5,95.8,96,192h64c54.4-96.2-8.2-156.9-27-172.2A7.8,7.8,0,0,0,123,19.8Z" fill="none" stroke="#000000" stroke-linecap="round" stroke-linejoin="round" stroke-width="8"></path><path d="M73.9,111.4,42.5,149a7.6,7.6,0,0,0-1.6,6.8l12.3,55.7A8,8,0,0,0,66,216l30-24" fill="none" stroke="#000000" stroke-linecap="round" stroke-linejoin="round" stroke-width="8"></path><path d="M181.5,110.6l32,38.4a7.6,7.6,0,0,1,1.6,6.8l-12.3,55.7A8,8,0,0,1,190,216l-30-24" fill="none" stroke="#000000" stroke-linecap="round" stroke-linejoin="round" stroke-width="8"></path><circle cx="128" cy="96" r="8"></circle></svg>

<svg id="icon-done" xmlns="http://www.w3.org/2000/svg" xmlns:xlink="http://www.w3.org/1999/xlink" fill="#000000" viewBox="0 0 256 256"><rect width="256" height="256" fill="none"></rect><polyline points="172 104 113.3 160 84 132" fill="none" stroke="#000000" stroke-linecap="round" stroke-linejoin="round" stroke-width="8"></polyline><circle cx="128" cy="128" r="96" fill="none" stroke="#000000" stroke-linecap="round" stroke-linejoin="round" stroke-width="8"></circle></svg>

<svg id="icon-plugins" xmlns="http://www.w3.org/2000/svg" xmlns:xlink="http://www.w3.org/1999/xlink" fill="#000000" viewBox="0 0 256 256"><rect width="256" height="256" fill="none"></rect><path d="M212,132l-57.4,57.4a31.9,31.9,0,0,1-45.2,0L66.6,146.6a31.9,31.9,0,0,1,0-45.2L124,44" fill="none" stroke="#000000" stroke-linecap="round" stroke-linejoin="round" stroke-width="8"></path><line x1="88" y1="168" x2="32" y2="224" fill="none" stroke="#000000" stroke-linecap="round" stroke-linejoin="round" stroke-width="8"></line><line x1="144" y1="64" x2="184" y2="24" fill="none" stroke="#000000" stroke-linecap="round" stroke-linejoin="round" stroke-width="8"></line><line x1="232" y1="72" x2="192" y2="112" fill="none" stroke="#000000" stroke-linecap="round" stroke-linejoin="round" stroke-width="8"></line><line x1="224" y1="144" x2="112" y2="32" fill="none" stroke="#000000" stroke-linecap="round" stroke-linejoin="round" stroke-width="8"></line></svg>

<svg id="icon-license" xmlns="http://www.w3.org/2000/svg" xmlns:xlink="http://www.w3.org/1999/xlink" fill="#000000" viewBox="0 0 256 256"><rect width="256" height="256" fill="none"></rect><line x1="152" y1="112" x2="192" y2="112" fill="none" stroke="#000000" stroke-linecap="round" stroke-linejoin="round" stroke-width="8"></line><line x1="152" y1="144" x2="192" y2="144" fill="none" stroke="#000000" stroke-linecap="round" stroke-linejoin="round" stroke-width="8"></line><circle cx="92.1" cy="120" r="24" fill="none" stroke="#000000" stroke-linecap="round" stroke-linejoin="round" stroke-width="8"></circle><path d="M61.1,168a32,32,0,0,1,62,0" fill="none" stroke="#000000" stroke-linecap="round" stroke-linejoin="round" stroke-width="8"></path><rect x="32" y="48" width="192" height="160" rx="8" fill="none" stroke="#000000" stroke-linecap="round" stroke-linejoin="round" stroke-width="8"></rect></svg>

<svg id="icon-content" version="1.1" xmlns="http://www.w3.org/2000/svg" xmlns:xlink="http://www.w3.org/1999/xlink" fill="#000000" viewBox="0 0 256 256"><rect width="256" height="256" fill="none"></rect><line x1="104" y1="104" x2="104" y2="208" fill="none" stroke="#000000" stroke-linecap="round" stroke-linejoin="round" stroke-width="8"></line><line x1="32" y1="104" x2="224" y2="104" fill="none" stroke="#000000" stroke-linecap="round" stroke-linejoin="round" stroke-width="8"></line><rect x="32" y="48" width="192" height="160" rx="8" fill="none" stroke="#000000" stroke-linecap="round" stroke-linejoin="round" stroke-width="8"></rect></svg>

<svg id="icon-child" xmlns="http://www.w3.org/2000/svg" xmlns:xlink="http://www.w3.org/1999/xlink" fill="#000000" viewBox="0 0 256 256"><rect width="256" height="256" fill="none"></rect><circle cx="128" cy="128" r="96" fill="none" stroke="#000000" stroke-linecap="round" stroke-linejoin="round" stroke-width="8"></circle><circle cx="92" cy="128" r="8"></circle><circle cx="164" cy="128" r="8"></circle><path d="M154.5,168a47.9,47.9,0,0,1-53,0" fill="none" stroke="#000000" stroke-linecap="round" stroke-linejoin="round" stroke-width="8"></path><path d="M128,32c-16,20-16,40-16,40a16,16,0,0,0,32,0" fill="none" stroke="#000000" stroke-linecap="round" stroke-linejoin="round" stroke-width="8"></path></svg>

</svg>